<?xml version="1.0" encoding="UTF-8"?>
<svg id="Layer_1" data-name="Layer 1" xmlns="http://www.w3.org/2000/svg" viewBox="0 0 512 512">
  <defs>
    <style>
      .cls-1 {
        fill: #60392d;
      }

      .cls-2 {
        stroke-width: 31px;
      }

      .cls-2, .cls-3, .cls-4, .cls-5, .cls-6 {
        stroke: #000;
      }

      .cls-2, .cls-7, .cls-8 {
        stroke-linecap: round;
      }

      .cls-2, .cls-7, .cls-8, .cls-6 {
        fill: none;
      }

      .cls-2, .cls-6 {
        stroke-linejoin: round;
      }

      .cls-9 {
        fill: #fff;
      }

      .cls-3 {
        stroke-width: 14px;
      }

      .cls-3, .cls-10 {
        fill: #b88a6a;
      }

      .cls-3, .cls-7, .cls-4, .cls-5, .cls-8 {
        stroke-miterlimit: 10;
      }

      .cls-11 {
        fill: red;
      }

      .cls-7, .cls-8 {
        stroke: #60392d;
      }

      .cls-4 {
        stroke-width: 13px;
      }

      .cls-4, .cls-12 {
        fill: #ffc200;
      }

      .cls-5 {
        fill: #3d2621;
        stroke-width: 11px;
      }

      .cls-8 {
        stroke-width: 5px;
      }

      .cls-6 {
        stroke-width: 10px;
      }

      .cls-13 {
        fill: #123f03;
      }
    </style>
  </defs>
  <path class="cls-2" d="M477.21,348.69c-11.5-20.83-37.67-49.21-55.89-67.76,4.66,1.91,7.28,3.11,7.28,3.11,7.56-1.95,7.5-26.14,7.38-29.52-.11-3.39-6.1-7.81-6.1-7.81,0,0,26.87-57.69,24.87-116.96-2-59.26-75.22-94.08-116.31-106.26-41.09-12.17-117.02,23.44-117.02,23.44,0,0-28.78.97-98.85,9.27C52.5,64.51,26.84,183.18,27.7,208.58c.86,25.4,49.05,72.08,49.05,72.08,0,0-3.98,2.82-5.5,6.01-5.18,10.88,18.47,26.61,18.47,26.61,0,0,.79-.3,2.25-.85-11.75,22.29-30.5,60.21-36.09,85.18-4.41,19.67-4.44,43.84,6.57,47.79,11.02,3.95,29.95-18.29,31.75-36.12.75-7.47,2.05-26.41,4.05-46.53-2.31,30.01-3.12,62.91,1.47,84.18,5.46,25.29,20.5,51.19,40.03,44.84,14.17-4.61,26.18-27.97,28.53-48.39,1.47.3,2.95.32,4.43-.01,10.41-2.32,16.29-23.75,13.61-40.79,3.37,1.61,7.67,3.44,13.23,5.64,18.98,7.52,116.94-5.87,127.91-8.16,5.28-1.1,10.71-4.11,15.29-7.47,2.56,16.45,13.75,33.56,24.65,32.92,1.62-.09,3.16-.53,4.62-1.23,7.84,19.05,26.54,38.22,42.55,38.7,22.06.66,30.92-28.53,29.94-54.45-.82-21.8-10.35-53.31-20.69-81.61,7.4,18.85,13.75,36.76,16.51,43.75,6.58,16.69,32.21,32.85,42.67,25.96,10.45-6.89,4.04-30.19-5.75-47.93Z"/>
  <g>
    <path class="cls-3" d="M385.48,265.73s-26.2,119.94-29.39,124.85-14.84,15.38-25.81,17.67c-10.96,2.29-108.93,15.68-127.91,8.16-18.98-7.52-23.41-10.73-25.49-15.46s-39.8-112.44-37.63-119.23c2.17-6.79,90.57-33.46,133.78-33.16s112.44,17.17,112.44,17.17Z"/>
    <path class="cls-1" d="M194.07,402.26s-9.35-37.75-6.07-40.26,57.17-11.46,82.15-10.86c24.98.6,65.92.71,68.93,4.44,3.01,3.74,3.84,31.99,1.6,36.86-2.24,4.88,20.54-67.32,21.03-86.54.49-19.22-87.47-18.75-102.82-18.23s-105.3,14.34-108.98,19.26c-3.67,4.92,39.65,89.72,44.16,95.33Z"/>
    <g>
      <path class="cls-5" d="M104.68,302.49s-37.62,66.08-45.96,103.33c-4.41,19.67-4.44,43.84,6.57,47.79,11.02,3.95,29.95-18.29,31.75-36.12s6.67-101.04,16.94-109.55-9.31-5.45-9.31-5.45Z"/>
      <path class="cls-5" d="M131.08,292.59s0,81.33,12.25,119.73c6.47,20.28,19.55,42.07,32.2,39.25,12.64-2.82,18.62-33.83,10.67-50.93-7.96-17.1-48.47-94.91-43.29-108.53,5.18-13.62-11.83.48-11.83.48Z"/>
      <path class="cls-5" d="M109.24,300.39s-17.02,106.86-6.68,154.75c5.46,25.29,20.5,51.19,40.03,44.84,19.53-6.35,34.98-48.35,26.63-69.15s-52.77-114.56-42.16-133.54c10.61-18.98-17.82,3.11-17.82,3.11Z"/>
    </g>
    <g>
      <path class="cls-5" d="M404.81,270.08s56.7,53.22,75.24,86.82c9.79,17.74,16.21,41.04,5.75,47.93-10.45,6.89-36.08-9.27-42.67-25.96-6.58-16.69-33.63-95.6-46.6-100.94s8.27-7.86,8.27-7.86Z"/>
      <path class="cls-5" d="M374.64,267.92s21.47,78.46,18.82,118.92c-1.4,21.37-9.3,46.06-23.24,46.87-13.94.81-28.37-27.43-24.58-46.15,3.79-18.72,25.53-105.11,16.53-116.8s12.47-2.84,12.47-2.84Z"/>
      <path class="cls-5" d="M399.5,269.33s45.97,98.32,47.83,147.4c.98,25.92-7.88,55.11-29.94,54.45-22.06-.66-49.27-36.85-46.05-59.26,3.22-22.4,24.83-125.27,8.75-140.61-16.08-15.34,19.42-1.99,19.42-1.99Z"/>
    </g>
    <path class="cls-4" d="M116.83,300.16s17.47,19.88,32.51,24.5,88.43-25.7,120.11-25.81c31.68-.11,82.13,15.2,99.83,13.3,17.7-1.9,45.06-30.51,44.9-35.15s-105.48-38.69-134.91-28.73c-29.43,9.96-162.44,51.89-162.44,51.89Z"/>
    <g>
      <path class="cls-13" d="M92.9,318.68c-6.3-4.44-19.82-15.87-16.55-22.73,1.01-2.12,3.73-4.36,4.69-5.05l2.45-1.74-2.15-2.09c-.47-.46-47.48-46.27-48.29-70.37-.38-11.38,5.27-46.97,20.62-81.5,12.8-28.79,35.69-64,72.04-68.31,69.11-8.19,98.35-9.24,98.64-9.25l.51-.02.46-.22c.55-.26,55.37-25.74,96.08-25.74,7.27,0,13.72.82,19.16,2.43,12.44,3.69,44.36,14.48,72.03,35.08,27.34,20.35,41.63,43.52,42.49,68.86,1.96,57.95-24.37,115.24-24.64,115.82l-.86,1.85,1.64,1.21c2.37,1.76,5.04,4.61,5.09,5.89.34,10-1.35,24.28-4.86,26.71-8.6-3.78-69.8-29.8-126.41-29.8-9.46,0-18.44.73-26.69,2.16-62.43,10.85-172.6,51.96-185.46,56.8Z"/>
      <path d="M321.41,29.16v5c7.02,0,13.23.78,18.45,2.33,12.31,3.65,43.9,14.33,71.25,34.69,26.7,19.87,40.66,42.4,41.48,66.94,1.94,57.32-24.14,114.11-24.4,114.68l-1.72,3.7,3.28,2.43c1.71,1.27,3.67,3.29,4.08,4.21.05,1.98.03,7.46-.61,12.92-.72,6.1-1.8,9.03-2.53,10.39-5.72-2.47-19.61-8.2-38.11-13.99-22.22-6.95-55.44-15.24-87.53-15.24-9.6,0-18.73.74-27.12,2.2-60.94,10.59-167.03,49.84-184.65,56.45-2.08-1.53-5.41-4.15-8.45-7.22-4.9-4.95-7.29-9.4-6.23-11.62.65-1.36,2.67-3.21,3.88-4.08l4.92-3.48-4.33-4.19c-13-12.6-46.88-49.5-47.53-68.66-.38-11.18,5.22-46.24,20.41-80.4,12.54-28.19,34.87-62.67,70.05-66.84,68.96-8.17,98.15-9.23,98.43-9.24l1.03-.04.93-.43c.54-.26,54.88-25.5,95.02-25.51v-5M321.41,29.16c-41.76,0-97.15,25.98-97.15,25.98,0,0-28.78.97-98.85,9.27C55.34,72.71,29.68,191.39,30.54,216.78c.86,25.4,49.05,72.08,49.05,72.08,0,0-3.98,2.82-5.5,6.01-5.18,10.89,18.47,26.61,18.47,26.61,0,0,119.66-45.57,186.23-57.14,8.51-1.48,17.34-2.12,26.26-2.12,60.9,0,126.39,30.02,126.39,30.02,7.56-1.95,7.5-26.14,7.38-29.52-.11-3.39-6.1-7.81-6.1-7.81,0,0,26.87-57.69,24.87-116.96-2-59.26-75.22-94.08-116.31-106.26-6-1.78-12.73-2.54-19.87-2.54h0Z"/>
    </g>
    <path class="cls-11" d="M54.53,255.85s120.74-70.23,196.99-71.11c76.25-.88,174.41,26.81,190,34.68-4.07,12.3-5.63,22.91-10.98,34.94-27.42-15.72-121.21-36.73-174.04-27.4-52.83,9.32-129.71,36.38-174.64,61.26-14.51-19.89-27.34-32.36-27.34-32.36Z"/>
    <path class="cls-12" d="M54.53,255.85c-18.13-17.53-21.28-30.36-20.25-49.88,1.04-19.53,8.26-39.65,8.26-39.65,0,0,70.87,19.7,100.47,17.85s159.79-63.44,248.32-50.76c11.86,1.7,63.23,17.08,63.23,17.08,0,0-5.91,43.09-13.44,70.2-71.6-26.24-178.48-38.38-217.34-32.97-63.71,8.87-149.78,58.73-169.25,68.12Z"/>
    <g>
      <ellipse cx="202.65" cy="359.83" rx="14.81" ry="30.82" transform="translate(-50.52 33.56) rotate(-8.42)"/>
      <ellipse class="cls-9" cx="203.28" cy="342.87" rx="6.96" ry="11.61" transform="translate(-120.87 110.89) rotate(-23.75)"/>
    </g>
    <g>
      <ellipse cx="321.61" cy="349.52" rx="30.82" ry="14.81" transform="translate(-34.14 664.22) rotate(-88.88)"/>
      <ellipse class="cls-9" cx="324.48" cy="332.33" rx="6.96" ry="11.61" transform="translate(-71.62 89.77) rotate(-14.2)"/>
    </g>
    <path class="cls-6" d="M431.44,292.24s-86.09-39.47-152.66-27.9c-66.57,11.57-186.23,57.14-186.23,57.14,0,0-23.66-15.72-18.47-26.61,1.52-3.2,5.5-6.01,5.5-6.01,0,0-48.19-46.68-49.05-72.08-.86-25.4,24.8-144.08,94.87-152.37s98.85-9.27,98.85-9.27c0,0,75.93-35.62,117.02-23.44,41.09,12.17,114.31,46.99,116.31,106.26,2,59.26-24.87,116.96-24.87,116.96,0,0,5.98,4.43,6.1,7.81s.18,27.57-7.38,29.52Z"/>
    <line class="cls-7" x1="199.01" y1="395.87" x2="216.03" y2="389.59"/>
    <line class="cls-7" x1="201.86" y1="398.63" x2="218.88" y2="392.35"/>
    <line class="cls-7" x1="314.27" y1="381.96" x2="331.94" y2="386.08"/>
    <line class="cls-7" x1="315.14" y1="385.83" x2="332.8" y2="389.96"/>
    <path class="cls-10" d="M93.3,343.18s-25.36,48.85-23.59,55.66,11.69,5.18,12.73.97,10.85-56.63,10.85-56.63Z"/>
    <path class="cls-10" d="M113.68,329.75s-11.29,69.47-7.24,105.58c2.76,24.6,24.27,21.56,17.72-.98-10.84-37.32-10.48-104.6-10.48-104.6Z"/>
    <path class="cls-10" d="M421.09,300.35s41.93,40.56,41.41,47.67c-.52,7.11-12.79,8.23-15.04,4.42s-26.37-52.09-26.37-52.09Z"/>
    <path class="cls-10" d="M409.24,308.12s26.7,65.85,28.56,102.2c1.27,24.76-25.35,26.36-21.64,2.81,6.14-38.98-6.92-105.01-6.92-105.01Z"/>
    <path class="cls-8" d="M273.55,397.79s-2.36,3.41-8.49,3.29-11.45-1.95-11.45-1.95"/>
  </g>
</svg>