<?xml version="1.0" encoding="UTF-8"?>
<svg id="Layer_1" data-name="Layer 1" xmlns="http://www.w3.org/2000/svg" viewBox="0 0 128 128">
  <defs>
    <style>
      .cls-1 {
        fill: red;
      }
    </style>
  </defs>
  <path class="cls-1" d="M6.53,80.41l32.74-34.09c1-1.04,2.54-1.36,3.87-.81,1.33.56,2.19,1.88,2.15,3.32l-.7,26.39,28.99-28.96c1-1,2.5-1.3,3.81-.76,1.31.54,2.16,1.81,2.17,3.22l.1,26.77,29.3-29.24c1-.99,2.49-1.3,3.8-.76,1.3.53,2.16,1.8,2.17,3.2l.31,31.7h12.76V12.32c0-6.6-5.4-12-12-12H12C5.4.32,0,5.72,0,12.32v68.08h6.53Z"/>
  <path class="cls-1" d="M111.78,87.41c-1.92,0-3.48-1.55-3.5-3.47l-.27-26.84-29.35,29.29c-.67.67-1.56,1.02-2.47,1.02-.45,0-.9-.09-1.33-.26-1.31-.54-2.16-1.81-2.17-3.22l-.1-26.76-29.25,29.23c-1.01,1.01-2.54,1.31-3.86.74-1.32-.57-2.15-1.88-2.12-3.31l.69-26.13-27.51,28.64c-.66.69-1.57,1.08-2.52,1.08H0v28.92c0,6.6,5.4,12,12,12h104c6.6,0,12-5.4,12-12v-28.92h-16.22Z"/>
</svg>