<?xml version="1.0" encoding="UTF-8"?>
<svg id="Layer_1" data-name="Layer 1" xmlns="http://www.w3.org/2000/svg" viewBox="0 0 128 128">
  <defs>
    <style>
      .cls-1 {
        fill: red;
      }
    </style>
  </defs>
  <path class="cls-1" d="M12.76,62.79l1.26-3.69c3.9-11.45,8.51-16.98,14.12-16.84,6.06.13,10.98,6.96,15.05,20.86l.64,2.17,1.41,4.43c3.57,11.2,6.86,13.65,7.83,13.65h0s3.59-.17,7.94-13.97l1.31-4.17,2.09-6.13c3.9-11.45,8.55-16.98,14.11-16.84,6.06.13,10.98,6.96,15.05,20.86l.64,2.17,1.41,4.43c3.57,11.2,6.86,13.65,7.83,13.65h0s3.59-.17,7.93-13.97l1.32-4.17c.46-1.46,1.81-2.45,3.34-2.45h11.96s0-50.79,0-50.79c0-6.6-5.4-12-12-12H12C5.4,0,0,5.4,0,12v50.82l12.76-.03Z"/>
  <path class="cls-1" d="M118.61,69.79l-.54,1.72c-3.99,12.69-8.77,18.86-14.6,18.87h-.02c-5.78,0-10.53-6.06-14.5-18.52l-1.44-4.51-.66-2.25c-4.56-15.57-8.45-15.83-8.49-15.83h-.01c-.9,0-3.94,2.16-7.33,12.1l-2.06,6.05-1.29,4.1c-3.99,12.69-8.77,18.86-14.6,18.87h-.02c-5.78,0-10.53-6.06-14.5-18.52l-1.44-4.51-.66-2.25c-4.56-15.57-8.45-15.83-8.49-15.83h-.01c-.9,0-3.94,2.16-7.32,12.1l-2.06,6.05c-.48,1.42-1.81,2.37-3.31,2.37l-15.27.03v46.18c0,6.6,5.4,12,12,12h104c6.6,0,12-5.4,12-12v-46.2h-9.39Z"/>
</svg>