<?xml version="1.0" encoding="UTF-8"?>
<svg id="Layer_1" data-name="Layer 1" xmlns="http://www.w3.org/2000/svg" viewBox="0 0 128 128">
  <defs>
    <style>
      .cls-1 {
        fill: red;
      }
    </style>
  </defs>
  <path class="cls-1" d="M13.85,80.11l.42-31.13c.03-1.91,1.59-3.45,3.5-3.45h24.39c.94,0,1.85.38,2.51,1.06.66.68,1.02,1.59.99,2.54l-.82,30.99h6.21l.28-31.11c.02-1.92,1.58-3.47,3.5-3.47h21.02c1.93,0,3.49,1.56,3.5,3.49l.12,31.1h7.08l-.85-30.99c-.03-.94.33-1.86.99-2.54.66-.68,1.56-1.06,2.51-1.06h21.44c1.92,0,3.48,1.55,3.5,3.47l.31,31.12h13.55V12.32c0-6.6-5.4-12-12-12H12C5.4.32,0,5.72,0,12.32v67.79h13.85Z"/>
  <path class="cls-1" d="M110.99,87.11c-1.92,0-3.48-1.55-3.5-3.47l-.31-31.12h-14.38l.85,30.99c.03.94-.33,1.86-.99,2.54-.66.68-1.56,1.06-2.51,1.06h-14.16c-1.93,0-3.49-1.56-3.5-3.49l-.12-31.1h-14.07l-.28,31.11c-.02,1.92-1.58,3.47-3.5,3.47h-13.27c-.94,0-1.85-.38-2.51-1.06-.66-.68-1.02-1.59-.99-2.53l.82-30.99h-17.34l-.42,31.13c-.03,1.91-1.59,3.45-3.5,3.45H0v29.21c0,6.6,5.4,12,12,12h104c6.6,0,12-5.4,12-12v-29.21h-17.01Z"/>
</svg>