<?xml version="1.0" encoding="UTF-8"?>
<svg id="Layer_1" data-name="Layer 1" xmlns="http://www.w3.org/2000/svg" viewBox="0 0 128 128">
  <defs>
    <style>
      .cls-1 {
        fill: red;
      }
    </style>
  </defs>
  <path class="cls-1" d="M108.7,73.05c-1.27,0-2.44-.69-3.06-1.79l-10.81-19.37-15,38.33c-.54,1.37-1.84,2.29-3.34,2.22-1.47-.03-2.76-.98-3.24-2.37l-12.31-36.16-14.17,36.3c-.53,1.35-1.82,2.23-3.26,2.23-.04,0-.08,0-.11,0-1.48-.05-2.77-1.02-3.22-2.44l-12.21-38.36-13.46,19.87c-.65.96-1.74,1.54-2.9,1.54H0v42.95c0,6.6,5.4,12,12,12h104c6.6,0,12-5.4,12-12v-42.95h-19.3Z"/>
  <path class="cls-1" d="M9.77,66.05l16.46-24.31c.75-1.11,2.08-1.69,3.4-1.5,1.33.19,2.43,1.12,2.83,2.4l11.4,35.81,14.05-36.02c.54-1.37,1.9-2.25,3.34-2.23,1.47.03,2.76.98,3.24,2.37l12.32,36.17,14.21-36.32c.49-1.26,1.67-2.12,3.02-2.22,1.36-.1,2.63.6,3.29,1.79l13.42,24.05h17.25V12c0-6.6-5.4-12-12-12H12C5.4,0,0,5.4,0,12v54.05h9.77Z"/>
</svg>